<mxfile host="app.diagrams.net" modified="2022-04-18T08:46:55.504Z" agent="5.0 (Macintosh; Intel Mac OS X 10_15_7) AppleWebKit/537.36 (KHTML, like Gecko) Chrome/100.0.4896.88 Safari/537.36" etag="2V1X9cgt2nOMIQQaYWjg" version="17.4.5" type="github">
  <diagram id="3228e29e-7158-1315-38df-8450db1d8a1d" name="Page-1">
    <mxGraphModel dx="1298" dy="756" grid="0" gridSize="10" guides="1" tooltips="1" connect="1" arrows="1" fold="1" page="1" pageScale="1" pageWidth="600" pageHeight="800" background="#EFF1F3" math="0" shadow="0">
      <root>
        <mxCell id="0" />
        <mxCell id="1" parent="0" />
        <mxCell id="S5-0rnaOrv-i-Kn8AG_H-33" value="" style="rounded=1;whiteSpace=wrap;html=1;dashed=1;fontSize=11;fillColor=none;" parent="1" vertex="1">
          <mxGeometry x="231" y="400" width="324" height="160" as="geometry" />
        </mxCell>
        <mxCell id="S5-0rnaOrv-i-Kn8AG_H-49" value="HTTP&#xa;Server" style="rounded=1;arcSize=10;dashed=1;fillColor=none;gradientColor=none;dashPattern=8 3 1 3;strokeWidth=2;labelBackgroundColor=none;fontSize=11;fontColor=#000000;" parent="1" vertex="1">
          <mxGeometry x="240" y="411" width="83" height="138" as="geometry" />
        </mxCell>
        <mxCell id="S5-0rnaOrv-i-Kn8AG_H-30" style="edgeStyle=orthogonalEdgeStyle;rounded=0;orthogonalLoop=1;jettySize=auto;html=1;exitX=1;exitY=0.5;exitDx=0;exitDy=0;fontSize=11;" parent="1" source="S5-0rnaOrv-i-Kn8AG_H-1" target="S5-0rnaOrv-i-Kn8AG_H-2" edge="1">
          <mxGeometry relative="1" as="geometry" />
        </mxCell>
        <mxCell id="S5-0rnaOrv-i-Kn8AG_H-1" value="" style="rounded=1;whiteSpace=wrap;html=1;fillColor=none;" parent="1" vertex="1">
          <mxGeometry x="45" y="101" width="152" height="90" as="geometry" />
        </mxCell>
        <mxCell id="S5-0rnaOrv-i-Kn8AG_H-2" value="" style="rounded=1;whiteSpace=wrap;html=1;fillColor=none;dashed=1;" parent="1" vertex="1">
          <mxGeometry x="303" y="23" width="252" height="246" as="geometry" />
        </mxCell>
        <mxCell id="S5-0rnaOrv-i-Kn8AG_H-3" value="" style="sketch=0;html=1;dashed=0;whitespace=wrap;fillColor=#2875E2;strokeColor=#ffffff;points=[[0.005,0.63,0],[0.1,0.2,0],[0.9,0.2,0],[0.5,0,0],[0.995,0.63,0],[0.72,0.99,0],[0.5,1,0],[0.28,0.99,0]];shape=mxgraph.kubernetes.icon;prIcon=pod" parent="1" vertex="1">
          <mxGeometry x="343" y="49" width="43" height="30" as="geometry" />
        </mxCell>
        <mxCell id="S5-0rnaOrv-i-Kn8AG_H-4" value="&lt;font style=&quot;font-size: 18px&quot;&gt;text model&lt;/font&gt;" style="text;html=1;strokeColor=none;fillColor=none;align=center;verticalAlign=middle;whiteSpace=wrap;rounded=0;dashed=1;" parent="1" vertex="1">
          <mxGeometry x="372" y="231" width="120" height="33" as="geometry" />
        </mxCell>
        <mxCell id="S5-0rnaOrv-i-Kn8AG_H-5" value="text-en-1" style="text;html=1;strokeColor=none;fillColor=none;align=center;verticalAlign=middle;whiteSpace=wrap;rounded=0;dashed=1;" parent="1" vertex="1">
          <mxGeometry x="334.5" y="73" width="60" height="30" as="geometry" />
        </mxCell>
        <mxCell id="S5-0rnaOrv-i-Kn8AG_H-6" value="" style="sketch=0;html=1;dashed=0;whitespace=wrap;fillColor=#2875E2;strokeColor=#ffffff;points=[[0.005,0.63,0],[0.1,0.2,0],[0.9,0.2,0],[0.5,0,0],[0.995,0.63,0],[0.72,0.99,0],[0.5,1,0],[0.28,0.99,0]];shape=mxgraph.kubernetes.icon;prIcon=pod" parent="1" vertex="1">
          <mxGeometry x="410.5" y="49" width="43" height="30" as="geometry" />
        </mxCell>
        <mxCell id="S5-0rnaOrv-i-Kn8AG_H-7" value="text-en-2" style="text;html=1;strokeColor=none;fillColor=none;align=center;verticalAlign=middle;whiteSpace=wrap;rounded=0;dashed=1;" parent="1" vertex="1">
          <mxGeometry x="402" y="73" width="60" height="30" as="geometry" />
        </mxCell>
        <mxCell id="S5-0rnaOrv-i-Kn8AG_H-8" value="" style="sketch=0;html=1;dashed=0;whitespace=wrap;fillColor=#2875E2;strokeColor=#ffffff;points=[[0.005,0.63,0],[0.1,0.2,0],[0.9,0.2,0],[0.5,0,0],[0.995,0.63,0],[0.72,0.99,0],[0.5,1,0],[0.28,0.99,0]];shape=mxgraph.kubernetes.icon;prIcon=pod" parent="1" vertex="1">
          <mxGeometry x="475.5" y="49" width="43" height="30" as="geometry" />
        </mxCell>
        <mxCell id="S5-0rnaOrv-i-Kn8AG_H-9" value="text-en-3" style="text;html=1;strokeColor=none;fillColor=none;align=center;verticalAlign=middle;whiteSpace=wrap;rounded=0;dashed=1;" parent="1" vertex="1">
          <mxGeometry x="467" y="73" width="60" height="30" as="geometry" />
        </mxCell>
        <mxCell id="S5-0rnaOrv-i-Kn8AG_H-10" value="" style="sketch=0;html=1;dashed=0;whitespace=wrap;fillColor=#2875E2;strokeColor=#ffffff;points=[[0.005,0.63,0],[0.1,0.2,0],[0.9,0.2,0],[0.5,0,0],[0.995,0.63,0],[0.72,0.99,0],[0.5,1,0],[0.28,0.99,0]];shape=mxgraph.kubernetes.icon;prIcon=pod" parent="1" vertex="1">
          <mxGeometry x="343" y="109" width="43" height="30" as="geometry" />
        </mxCell>
        <mxCell id="S5-0rnaOrv-i-Kn8AG_H-11" value="text-th-1" style="text;html=1;strokeColor=none;fillColor=none;align=center;verticalAlign=middle;whiteSpace=wrap;rounded=0;dashed=1;" parent="1" vertex="1">
          <mxGeometry x="334.5" y="133" width="60" height="30" as="geometry" />
        </mxCell>
        <mxCell id="S5-0rnaOrv-i-Kn8AG_H-12" value="" style="sketch=0;html=1;dashed=0;whitespace=wrap;fillColor=#2875E2;strokeColor=#ffffff;points=[[0.005,0.63,0],[0.1,0.2,0],[0.9,0.2,0],[0.5,0,0],[0.995,0.63,0],[0.72,0.99,0],[0.5,1,0],[0.28,0.99,0]];shape=mxgraph.kubernetes.icon;prIcon=pod" parent="1" vertex="1">
          <mxGeometry x="410.5" y="109" width="43" height="30" as="geometry" />
        </mxCell>
        <mxCell id="S5-0rnaOrv-i-Kn8AG_H-13" value="text-th-2" style="text;html=1;strokeColor=none;fillColor=none;align=center;verticalAlign=middle;whiteSpace=wrap;rounded=0;dashed=1;" parent="1" vertex="1">
          <mxGeometry x="402" y="133" width="60" height="30" as="geometry" />
        </mxCell>
        <mxCell id="S5-0rnaOrv-i-Kn8AG_H-14" value="" style="sketch=0;html=1;dashed=0;whitespace=wrap;fillColor=#2875E2;strokeColor=#ffffff;points=[[0.005,0.63,0],[0.1,0.2,0],[0.9,0.2,0],[0.5,0,0],[0.995,0.63,0],[0.72,0.99,0],[0.5,1,0],[0.28,0.99,0]];shape=mxgraph.kubernetes.icon;prIcon=pod" parent="1" vertex="1">
          <mxGeometry x="479.5" y="109" width="43" height="30" as="geometry" />
        </mxCell>
        <mxCell id="S5-0rnaOrv-i-Kn8AG_H-15" value="text-th-3" style="text;html=1;strokeColor=none;fillColor=none;align=center;verticalAlign=middle;whiteSpace=wrap;rounded=0;dashed=1;" parent="1" vertex="1">
          <mxGeometry x="471" y="133" width="60" height="30" as="geometry" />
        </mxCell>
        <mxCell id="S5-0rnaOrv-i-Kn8AG_H-16" value="" style="sketch=0;html=1;dashed=0;whitespace=wrap;fillColor=#2875E2;strokeColor=#ffffff;points=[[0.005,0.63,0],[0.1,0.2,0],[0.9,0.2,0],[0.5,0,0],[0.995,0.63,0],[0.72,0.99,0],[0.5,1,0],[0.28,0.99,0]];shape=mxgraph.kubernetes.icon;prIcon=pod" parent="1" vertex="1">
          <mxGeometry x="343" y="167" width="43" height="30" as="geometry" />
        </mxCell>
        <mxCell id="S5-0rnaOrv-i-Kn8AG_H-17" value="text-es-1" style="text;html=1;strokeColor=none;fillColor=none;align=center;verticalAlign=middle;whiteSpace=wrap;rounded=0;dashed=1;" parent="1" vertex="1">
          <mxGeometry x="334.5" y="191" width="60" height="30" as="geometry" />
        </mxCell>
        <mxCell id="S5-0rnaOrv-i-Kn8AG_H-18" value="" style="sketch=0;html=1;dashed=0;whitespace=wrap;fillColor=#2875E2;strokeColor=#ffffff;points=[[0.005,0.63,0],[0.1,0.2,0],[0.9,0.2,0],[0.5,0,0],[0.995,0.63,0],[0.72,0.99,0],[0.5,1,0],[0.28,0.99,0]];shape=mxgraph.kubernetes.icon;prIcon=pod" parent="1" vertex="1">
          <mxGeometry x="410.5" y="167" width="43" height="30" as="geometry" />
        </mxCell>
        <mxCell id="S5-0rnaOrv-i-Kn8AG_H-19" value="text-es-1" style="text;html=1;strokeColor=none;fillColor=none;align=center;verticalAlign=middle;whiteSpace=wrap;rounded=0;dashed=1;" parent="1" vertex="1">
          <mxGeometry x="402" y="191" width="60" height="30" as="geometry" />
        </mxCell>
        <mxCell id="S5-0rnaOrv-i-Kn8AG_H-20" value="" style="sketch=0;html=1;dashed=0;whitespace=wrap;fillColor=#2875E2;strokeColor=#ffffff;points=[[0.005,0.63,0],[0.1,0.2,0],[0.9,0.2,0],[0.5,0,0],[0.995,0.63,0],[0.72,0.99,0],[0.5,1,0],[0.28,0.99,0]];shape=mxgraph.kubernetes.icon;prIcon=pod" parent="1" vertex="1">
          <mxGeometry x="484" y="167" width="43" height="30" as="geometry" />
        </mxCell>
        <mxCell id="S5-0rnaOrv-i-Kn8AG_H-21" value="text-es-1" style="text;html=1;strokeColor=none;fillColor=none;align=center;verticalAlign=middle;whiteSpace=wrap;rounded=0;dashed=1;" parent="1" vertex="1">
          <mxGeometry x="475.5" y="191" width="60" height="30" as="geometry" />
        </mxCell>
        <mxCell id="S5-0rnaOrv-i-Kn8AG_H-22" value="" style="sketch=0;points=[[0.5,0,0],[1,0.5,0],[0.5,1,0],[0,0.5,0],[0.145,0.145,0],[0.8555,0.145,0],[0.855,0.8555,0],[0.145,0.855,0]];verticalLabelPosition=bottom;html=1;verticalAlign=top;aspect=fixed;align=center;pointerEvents=1;shape=mxgraph.cisco19.rect;prIcon=router;fillColor=#FAFAFA;strokeColor=#005073;dashed=1;fontSize=19;" parent="1" vertex="1">
          <mxGeometry x="96" y="113" width="50" height="50" as="geometry" />
        </mxCell>
        <mxCell id="S5-0rnaOrv-i-Kn8AG_H-23" value="api-gateway" style="text;html=1;strokeColor=none;fillColor=none;align=center;verticalAlign=middle;whiteSpace=wrap;rounded=0;dashed=1;fontSize=19;" parent="1" vertex="1">
          <mxGeometry x="58" y="205" width="126" height="39" as="geometry" />
        </mxCell>
        <mxCell id="S5-0rnaOrv-i-Kn8AG_H-24" value="&lt;font style=&quot;font-size: 11px&quot;&gt;router config&lt;/font&gt;" style="text;html=1;strokeColor=none;fillColor=none;align=center;verticalAlign=middle;whiteSpace=wrap;rounded=0;dashed=1;fontSize=19;" parent="1" vertex="1">
          <mxGeometry x="81" y="163" width="80" height="21" as="geometry" />
        </mxCell>
        <mxCell id="S5-0rnaOrv-i-Kn8AG_H-27" value="http" style="text;html=1;strokeColor=none;fillColor=none;align=center;verticalAlign=middle;whiteSpace=wrap;rounded=0;dashed=1;fontSize=11;" parent="1" vertex="1">
          <mxGeometry x="217" y="117" width="47" height="16" as="geometry" />
        </mxCell>
        <mxCell id="S5-0rnaOrv-i-Kn8AG_H-28" value="" style="sketch=0;html=1;dashed=0;whitespace=wrap;fillColor=#2875E2;strokeColor=#ffffff;points=[[0.005,0.63,0],[0.1,0.2,0],[0.9,0.2,0],[0.5,0,0],[0.995,0.63,0],[0.72,0.99,0],[0.5,1,0],[0.28,0.99,0]];shape=mxgraph.kubernetes.icon;prIcon=pod" parent="1" vertex="1">
          <mxGeometry x="66.5" y="462" width="43" height="30" as="geometry" />
        </mxCell>
        <mxCell id="S5-0rnaOrv-i-Kn8AG_H-29" value="text-es-1" style="text;html=1;strokeColor=none;fillColor=none;align=center;verticalAlign=middle;whiteSpace=wrap;rounded=0;dashed=1;" parent="1" vertex="1">
          <mxGeometry x="58" y="486" width="60" height="30" as="geometry" />
        </mxCell>
        <mxCell id="S5-0rnaOrv-i-Kn8AG_H-31" value="" style="shape=flexArrow;endArrow=classic;html=1;rounded=0;fontSize=11;" parent="1" edge="1">
          <mxGeometry width="50" height="50" relative="1" as="geometry">
            <mxPoint x="136" y="486" as="sourcePoint" />
            <mxPoint x="211" y="486" as="targetPoint" />
          </mxGeometry>
        </mxCell>
        <mxCell id="S5-0rnaOrv-i-Kn8AG_H-40" value="" style="shape=image;html=1;verticalAlign=top;verticalLabelPosition=bottom;labelBackgroundColor=#ffffff;imageAspect=0;aspect=fixed;image=https://cdn4.iconfinder.com/data/icons/humility-icons-MERGE/48x48/filesystems/gnome-fs-directory-visiting.png;fontSize=11;fillColor=none;" parent="1" vertex="1">
          <mxGeometry x="334" y="421" width="24" height="24" as="geometry" />
        </mxCell>
        <mxCell id="S5-0rnaOrv-i-Kn8AG_H-41" value="" style="shape=image;html=1;verticalAlign=top;verticalLabelPosition=bottom;labelBackgroundColor=#ffffff;imageAspect=0;aspect=fixed;image=https://cdn4.iconfinder.com/data/icons/humility-icons-MERGE/48x48/filesystems/gnome-fs-directory-visiting.png;fontSize=11;fillColor=none;" parent="1" vertex="1">
          <mxGeometry x="334" y="455" width="24" height="24" as="geometry" />
        </mxCell>
        <mxCell id="S5-0rnaOrv-i-Kn8AG_H-42" value="" style="shape=image;html=1;verticalAlign=top;verticalLabelPosition=bottom;labelBackgroundColor=#ffffff;imageAspect=0;aspect=fixed;image=https://cdn4.iconfinder.com/data/icons/humility-icons-MERGE/48x48/filesystems/gnome-fs-directory-visiting.png;fontSize=11;fillColor=none;" parent="1" vertex="1">
          <mxGeometry x="334" y="488" width="24" height="24" as="geometry" />
        </mxCell>
        <mxCell id="S5-0rnaOrv-i-Kn8AG_H-43" value="" style="shape=image;html=1;verticalAlign=top;verticalLabelPosition=bottom;labelBackgroundColor=#ffffff;imageAspect=0;aspect=fixed;image=https://cdn4.iconfinder.com/data/icons/humility-icons-MERGE/48x48/filesystems/gnome-fs-directory-visiting.png;fontSize=11;fillColor=none;" parent="1" vertex="1">
          <mxGeometry x="334" y="519" width="24" height="24" as="geometry" />
        </mxCell>
        <mxCell id="S5-0rnaOrv-i-Kn8AG_H-44" value="&lt;div style=&quot;font-family: &amp;#34;menlo&amp;#34; , &amp;#34;monaco&amp;#34; , &amp;#34;courier new&amp;#34; , monospace ; font-size: 16px ; line-height: 24px&quot;&gt;&lt;div&gt;mx_100001_model_v1&lt;/div&gt;&lt;/div&gt;" style="text;html=1;strokeColor=none;fillColor=none;align=center;verticalAlign=middle;whiteSpace=wrap;rounded=0;fontSize=11;" parent="1" vertex="1">
          <mxGeometry x="356" y="416.5" width="192" height="33" as="geometry" />
        </mxCell>
        <mxCell id="S5-0rnaOrv-i-Kn8AG_H-45" value="&lt;div style=&quot;font-family: menlo, monaco, &amp;quot;courier new&amp;quot;, monospace; font-size: 16px;&quot;&gt;mx_&lt;span style=&quot;&quot;&gt;100009&lt;/span&gt;_model_v&lt;span style=&quot;&quot;&gt;1&lt;/span&gt;&lt;/div&gt;" style="text;html=1;strokeColor=none;fillColor=none;align=center;verticalAlign=middle;whiteSpace=wrap;rounded=0;fontSize=11;fontColor=#000000;" parent="1" vertex="1">
          <mxGeometry x="357.5" y="455" width="188" height="26" as="geometry" />
        </mxCell>
        <mxCell id="S5-0rnaOrv-i-Kn8AG_H-46" value="&lt;div style=&quot;font-family: menlo, monaco, &amp;quot;courier new&amp;quot;, monospace; font-size: 16px;&quot;&gt;mx_&lt;span style=&quot;&quot;&gt;100013&lt;/span&gt;_model_v&lt;span style=&quot;&quot;&gt;1&lt;/span&gt;&lt;/div&gt;" style="text;html=1;strokeColor=none;fillColor=none;align=center;verticalAlign=middle;whiteSpace=wrap;rounded=0;fontSize=11;fontColor=#000000;" parent="1" vertex="1">
          <mxGeometry x="361" y="487.5" width="183" height="25" as="geometry" />
        </mxCell>
        <mxCell id="S5-0rnaOrv-i-Kn8AG_H-47" value="&lt;span style=&quot;font-family: menlo, monaco, &amp;quot;courier new&amp;quot;, monospace; font-size: 16px;&quot;&gt;mx_&lt;/span&gt;&lt;span style=&quot;font-family: menlo, monaco, &amp;quot;courier new&amp;quot;, monospace; font-size: 16px;&quot;&gt;100534&lt;/span&gt;&lt;span style=&quot;font-family: menlo, monaco, &amp;quot;courier new&amp;quot;, monospace; font-size: 16px;&quot;&gt;_model_v&lt;/span&gt;&lt;span style=&quot;font-family: menlo, monaco, &amp;quot;courier new&amp;quot;, monospace; font-size: 16px;&quot;&gt;1&lt;/span&gt;" style="text;html=1;strokeColor=none;fillColor=none;align=center;verticalAlign=middle;whiteSpace=wrap;rounded=0;fontSize=11;fontColor=#000000;" parent="1" vertex="1">
          <mxGeometry x="357.5" y="519" width="189" height="24" as="geometry" />
        </mxCell>
      </root>
    </mxGraphModel>
  </diagram>
</mxfile>
